<?xml version="1.0" encoding="utf-8"?>
<!-- Generator: Adobe Illustrator 21.0.2, SVG Export Plug-In . SVG Version: 6.00 Build 0)  -->
<svg version="1.1" id="Layer_1" xmlns="http://www.w3.org/2000/svg" xmlns:xlink="http://www.w3.org/1999/xlink" x="0px" y="0px"
	 viewBox="0 0 500 500"  xml:space="preserve">
<style type="text/css">
	.st0{fill:#006633;}
</style>
<g>
	<path id="waves" class="st0" d="M139.3,166.1l1.8,1.7c50.6,40.7,105.3,36.7,146.9,10.2c26.2-16.7,144.9-92.4,212-135.2V0H0v112.8
		C30.5,107.8,79.6,112.7,139.3,166.1 M327.3,353.7l-59.1-54.3c-8.3-7.2-15.4-12.6-16.9-13.7c-48.3-32.5-93.3-22.6-112.7-15.7
		c-5.9,2.2-11.5,5.3-15.5,7.7L0,356.8V500h499.9V396.9C489,403.6,421.2,438.7,327.3,353.7 M134.8,178.9c-2.7-2.4-5.6-4.9-8.3-7
		c-59-43.8-114.8-22.3-126.6-17v49.3l28.9-18.7c0,0,44.6-31.7,113.9,0.8L134.8,178.9 M203.9,242.5c-2.6-2.2-5.2-4.5-7.9-6.9
		C143.6,193.2,93,204,72,211.4c-6,2.3-11.6,5.4-15.6,7.8L0,255.4v50.8l94.3-60.9c0,0,44.1-31.4,112.7,0.2L203.9,242.5 M500,295.7
		c-19.7,12.7-39.7,25.6-47.6,30.7c-17.8,11.4-58.9,39.7-127.4,8.3l8.1,7.4c3,2.6,6.7,5.6,10.7,8.6c49.2,35.2,101.8,30.2,141.2,5.1
		c5.5-3.5,10.4-6.6,15.1-9.6L500,295.7 M500,194c-43.2,27.8-101.5,65.4-112.4,72.4c-17.8,11.4-59.5,40.1-126.6,9.4l7.8,7.1
		c0.9,0.8,1.8,1.5,2.6,2.4l0,0l0,0c52,42.2,109.4,35.8,148.7,10.6c22.2-14.2,53.7-34.6,79.9-51.7L500,194 M500,92.9
		c-62.3,40-164.4,105.6-176.8,113.6c-17.9,11.5-60.2,40.6-126.4,10.3l8,7.4c4.8,4.1,11.2,9.3,18.1,13.6
		c45.8,28.1,93.8,23.1,132.8-1.9c28.1-18,97.1-62,144.3-92.1V92.9"/>
</g>
</svg>
